<svg xmlns="http://www.w3.org/2000/svg" width="40" viewBox="0 0 0.402948 0.242022"><g id="Layer_x0020_1"><metadata id="CorelCorpID_0Corel-Layer"></metadata><path fill="#fff" fill-rule="evenodd" clip-rule="evenodd" shape-rendering="geometricPrecision" text-rendering="geometricPrecision" image-rendering="optimizeQuality" d="M0.0334699 0.173397l0.0160351 0c0.00565459,0 0.0102807,0.00550958 0.0102807,0.0122451l0 0c0,0.00673553 -0.00462611,0.0122461 -0.0102807,0.0122461l-0.0160351 0c-0.00565562,0 -0.0102807,-0.00551061 -0.0102807,-0.0122461l0 0c0,-0.00673553 0.00462508,-0.0122451 0.0102807,-0.0122451zm0.233789 -0.099589l0 0.0461357 0.052324 -0.054561c0.00251155,-0.00263394 0.00465594,-0.0045644 0.0064023,-0.00582018 0.00177722,-0.00125578 0.00413553,-0.00189961 0.00704613,-0.00189961 0.00382904,0 0.00695357,0.00113339 0.00931291,0.00337034 0.00235831,0.00223592 0.00352255,0.00496243 0.00352255,0.00821037 0,0.00388972 -0.00199114,0.00774961 -0.00600428,0.0115797l-0.0323807 0.0306961 0.0373133 0.0534883c0.00263394,0.00370665 0.00462611,0.00695357 0.00594257,0.00971093 0.00131749,0.00278719 0.00196132,0.00551369 0.00196132,0.00814866 0,0.0029106 -0.00116424,0.00545301 -0.00346187,0.00762825 -0.00229763,0.00214439 -0.00542216,0.00321606 -0.00937461,0.00321606 -0.00370665,0 -0.00673964,-0.000796045 -0.00906813,-0.00238916 -0.00232746,-0.00156226 -0.00428877,-0.0036758 -0.00591172,-0.00631077 -0.00162397,-0.00263497 -0.00306385,-0.00502414 -0.00431962,-0.00716852l-0.0314932 -0.0484641 -0.021811 0.0208926 0 0.0272044c0,0.00551369 -0.00125681,0.00958854 -0.00376836,0.0122533 -0.00251258,0.00266583 -0.0057595,0.00398228 -0.0096811,0.00398228 -0.00229763,0 -0.00447184,-0.000611947 -0.00655555,-0.00180704 -0.00211353,-0.0011951 -0.00370665,-0.00278822 -0.00484004,-0.00484004 -0.000857754,-0.00165483 -0.00134834,-0.00361511 -0.00153141,-0.00582121 -0.000184098,-0.00220507 -0.000275633,-0.00542216 -0.000275633,-0.00961939l0 -0.0978159c0,-0.00536148 0.00119407,-0.00940547 0.00355341,-0.0121011 0.00235831,-0.00269565 0.0055754,-0.00404399 0.00964922,-0.00404399 0.00398331,0 0.00723023,0.00131749 0.00971196,0.00398331 0.0024807,0.0026648 0.0037375,0.00673964 0.0037375,0.0121618zm0.00192018 -0.073808c0.0738666,0 0.133769,0.0541897 0.133769,0.121011 0,0.0668215 -0.0599019,0.121011 -0.133769,0.121011 -0.00422809,0 -0.00840578,-0.000187184 -0.0125341,-0.000534811l-0.175299 0c-0.00973253,0 -0.017695,-0.00550649 -0.017695,-0.0122359l0 0c0,-0.00672936 0.00796251,-0.0122359 0.017695,-0.0122359l0.067416 0 0.000125475 1.02848e-006 0.0374316 0 0.000126503 -1.02848e-006 0.00131954 0 -8.33071e-005 -5.9652e-005c0.00611535,-0.000533782 0.0109112,-0.00462303 0.0109112,-0.0095474l0 0c0,-0.00528434 -0.00552295,-0.00960808 -0.0122739,-0.00960808l-0.0374316 0c-0.000187184,0 -0.000372311,3.08545e-006 -0.000558466,9.25634e-006l-0.069151 0c-0.00733822,0 -0.0133415,-0.00550649 -0.0133415,-0.0122359l0 0c0,-0.00673039 0.00600325,-0.0122369 0.0133415,-0.0122369l0.0271848 0c0.000693197,9.05064e-005 0.00140388,0.000138845 0.00213101,0.000138845l0.0374316 0c0.000728165,0 0.00144399,-4.83387e-005 0.00213719,-0.000138845l0.000483387 0 -3.39399e-005 -6.58229e-005c0.00552089,-0.000879352 0.00968727,-0.00451607 0.00968727,-0.00883672l0 0c0,-0.00497271 -0.00552295,-0.00903933 -0.0122739,-0.00903933l-0.00502516 0 -5.14241e-006 -1.64557e-005 -0.110038 0c-0.00733719,0 -0.0133415,-0.00550649 -0.0133415,-0.0122359l0 0c0,-0.00673039 0.00600428,-0.0122369 0.0133415,-0.0122369l0.104999 0 -5.14241e-006 -5.7595e-005c0.00629123,-0.00040008 0.0112814,-0.0045716 0.0112814,-0.00961631l0 0c0,-0.00505499 -0.00500974,-0.0092368 -0.0113215,-0.00962145l1.02848e-006 -9.25634e-006 -0.000176899 0c-0.000256092,-1.23418e-005 -0.000516298,-1.74842e-005 -0.000775476,-1.74842e-005l-0.0374316 0c-0.000261234,0 -0.000516298,5.14241e-006 -0.000773419,1.74842e-005l-0.0416371 0c-0.00733719,0 -0.0133415,-0.00550649 -0.0133415,-0.0122359l0 0c0,-0.00672936 0.00600428,-0.0122359 0.0133415,-0.0122359l0.0857188 0 2.05696e-006 -7.19937e-006 0.00650618 0c0.00675096,0 0.0122739,-0.00431757 0.0122739,-0.00959368l0 0c0,-0.00483901 -0.0046364,-0.00887066 -0.0106088,-0.00951037l5.03956e-005 -9.35919e-005 -0.0991539 0c-0.00733719,0 -0.0133415,-0.00550649 -0.0133415,-0.0122359l0 0c0,-0.00673039 0.00600428,-0.0122369 0.0133415,-0.0122369l0.0990737 0c0.000274605,1.33703e-005 0.000550238,2.36551e-005 0.000828957,2.36551e-005l0.0374316 0c0.00675096,0 0.0122739,-0.00418592 0.0122739,-0.00930262l0 0c0,-0.00491512 -0.00509613,-0.00897248 -0.011483,-0.00928308l2.67405e-005 -1.95412e-005 -0.000817643 0 -0.0374316 0 -0.0322871 0c-0.00821449,0 -0.0149356,-0.00550649 -0.0149356,-0.0122359l0 0c0,-0.00673039 0.00672113,-0.0122359 0.0149356,-0.0122359l0.140832 0c0.00360483,-0.000265348 0.00724669,-0.000399051 0.0109256,-0.000399051zm-0.0540251 0.198373l0.0047341 0c0.00516092,0 0.00938079,0.00426409 0.00938079,0.00947541l0 0c0,0.00521235 -0.00421986,0.00947541 -0.00938079,0.00947541l-0.0047341 0c-0.00515989,0 -0.00938079,-0.00426306 -0.00938079,-0.00947541l0 0c0,-0.00521132 0.00422089,-0.00947541 0.00938079,-0.00947541zm-0.0518838 -0.0864223l0.0047341 0c0.00515989,0 0.00938079,0.00426306 0.00938079,0.00947438l0 0c0,0.00521338 -0.00422089,0.00947643 -0.00938079,0.00947643l-0.0047341 0c-0.00515989,0 -0.00938079,-0.00426306 -0.00938079,-0.00947643l0 0c0,-0.00521132 0.00422089,-0.00947438 0.00938079,-0.00947438zm0.0525678 -0.0868923l0.0047341 0c0.00516092,0 0.00938079,0.00409439 0.00938079,0.00910001l0 0c0,0.00500459 -0.00421986,0.00909898 -0.00938079,0.00909898l-0.0047341 0c-0.00515989,0 -0.00938079,-0.00409439 -0.00938079,-0.00909898l0 0c0,-0.00500562 0.00422089,-0.00910001 0.00938079,-0.00910001zm-0.144957 -0.0246589l0.0160351 0c0.00565459,0 0.0102807,0.00550958 0.0102807,0.0122451l0 0c0,0.00673553 -0.00462611,0.0122461 -0.0102807,0.0122461l-0.0160351 0c-0.00565459,0 -0.0102807,-0.00551061 -0.0102807,-0.0122461l0 0c0,-0.00673553 0.00462611,-0.0122451 0.0102807,-0.0122451zm-0.0606002 0.0868162l0.0160351 0c0.00565459,0 0.0102807,0.00551061 0.0102807,0.0122451l0 0c0,0.00673553 -0.00462611,0.0122461 -0.0102807,0.0122461l-0.0160351 0c-0.00565562,0 -0.0102807,-0.00551061 -0.0102807,-0.0122461l0 0c0,-0.0067345 0.00462508,-0.0122451 0.0102807,-0.0122451z"></path></g></svg>